<?xml version="1.0" encoding="utf-8"?>
<!-- Generator: Adobe Illustrator 16.0.4, SVG Export Plug-In . SVG Version: 6.00 Build 0)  -->
<!DOCTYPE svg PUBLIC "-//W3C//DTD SVG 1.1//EN" "http://www.w3.org/Graphics/SVG/1.1/DTD/svg11.dtd">
<svg version="1.1" id="Calque_1" xmlns="http://www.w3.org/2000/svg" xmlns:xlink="http://www.w3.org/1999/xlink" x="0px" y="0px"
	 width="30px" height="30px" viewBox="0 0 30 30" enable-background="new 0 0 30 30" xml:space="preserve">
<path fill="#0071BB" d="M23.5,0.5h-17c-3.313,0-6,2.687-6,6v17c0,3.312,2.687,6,6,6h17c3.312,0,6-2.688,6-6v-17
	C29.5,3.187,26.812,0.5,23.5,0.5z M20.369,7.941c0,0-1.311,0-2.043,0c-0.73,0-1.74,0.151-1.74,1.941v2.234h3.656l-0.479,3.659
	h-3.179v9.675h-3.782v-9.675H9.632v-3.659h3.172V9.882c0-3.488,1.719-5.333,4.375-5.333c1.814,0,3.189,0.088,3.189,0.088V7.941z"/>
<g>
	<path fill="#FFFFFF" d="M12.802,25.451h3.782v-9.676h3.18l0.479-3.659h-3.656V9.882c0-1.79,1.01-1.941,1.74-1.941
		c0.732,0,2.043,0,2.043,0V4.637c0,0-1.375-0.088-3.189-0.088c-2.657,0-4.375,1.845-4.375,5.333v2.234H9.631v3.659h3.171V25.451z"/>
	<path fill="#FFFFFF" d="M9.631,12.116h3.173V9.882c0-3.488,1.719-5.333,4.375-5.333c1.814,0,3.189,0.088,3.189,0.088v3.304
		c0,0-1.311,0-2.043,0c-0.73,0-1.74,0.151-1.74,1.941v2.234h3.656l-0.479,3.659h-3.18v9.676h-3.782v-9.676H9.631V12.116z"/>
</g>
</svg>
