<?xml version="1.0" encoding="UTF-8" standalone="no"?>
<!-- Generator: Adobe Illustrator 16.0.4, SVG Export Plug-In . SVG Version: 6.00 Build 0)  -->

<svg
   xmlns:dc="http://purl.org/dc/elements/1.1/"
   xmlns:cc="http://creativecommons.org/ns#"
   xmlns:rdf="http://www.w3.org/1999/02/22-rdf-syntax-ns#"
   xmlns:svg="http://www.w3.org/2000/svg"
   xmlns="http://www.w3.org/2000/svg"
   xmlns:sodipodi="http://sodipodi.sourceforge.net/DTD/sodipodi-0.dtd"
   xmlns:inkscape="http://www.inkscape.org/namespaces/inkscape"
   version="1.1"
   id="Calque_1"
   x="0px"
   y="0px"
   width="30px"
   height="30px"
   viewBox="0 0 30 30"
   enable-background="new 0 0 30 30"
   xml:space="preserve"
   sodipodi:docname="facebook_blanc.svg"
   inkscape:version="0.92.4 (5da689c313, 2019-01-14)"><metadata
   id="metadata3729"><rdf:RDF><cc:Work
       rdf:about=""><dc:format>image/svg+xml</dc:format><dc:type
         rdf:resource="http://purl.org/dc/dcmitype/StillImage" /><dc:title></dc:title></cc:Work></rdf:RDF></metadata><defs
   id="defs3727" /><sodipodi:namedview
   pagecolor="#ffffff"
   bordercolor="#666666"
   borderopacity="1"
   objecttolerance="10"
   gridtolerance="10"
   guidetolerance="10"
   inkscape:pageopacity="0"
   inkscape:pageshadow="2"
   inkscape:window-width="1920"
   inkscape:window-height="1001"
   id="namedview3725"
   showgrid="false"
   inkscape:zoom="26.933333"
   inkscape:cx="15"
   inkscape:cy="15"
   inkscape:window-x="-9"
   inkscape:window-y="-9"
   inkscape:window-maximized="1"
   inkscape:current-layer="Calque_1" />
<path
   fill="#B5B5B5"
   d="M23.5,0.5h-17c-3.313,0-6,2.687-6,6v17c0,3.313,2.687,6,6,6h17c3.313,0,6-2.687,6-6v-17  C29.5,3.187,26.813,0.5,23.5,0.5z M20.369,7.941c0,0-1.311,0-2.043,0c-0.73,0-1.74,0.151-1.74,1.941v2.234h3.656l-0.479,3.659  h-3.178v9.675h-3.782v-9.675H9.632v-3.659h3.172V9.882c0-3.488,1.719-5.333,4.375-5.333c1.815,0,3.19,0.088,3.19,0.088V7.941z"
   id="path3722" />
<path
   style="fill:#ffffff;fill-opacity:1;stroke-width:0.03712871"
   d="M 6.0519802,29.463111 C 3.5255595,29.277656 1.3526593,27.473025 0.71236189,25.028465 0.50889607,24.251663 0.51663676,24.683463 0.52899135,14.799505 L 0.54038488,5.6844059 0.62312501,5.3251073 C 0.80619226,4.5301381 1.0829862,3.855057 1.4690956,3.261844 2.4032825,1.8265728 3.7902357,0.914293 5.5321782,0.58931837 c 0.3315134,-0.0618467 0.8997041,-0.0658035 9.4492578,-0.0658035 8.670628,0 9.114662,0.003201 9.483711,0.0683725 1.305418,0.23052712 2.369656,0.78439403 3.288566,1.71148563 0.818874,0.8261649 1.341714,1.799504 1.623158,3.0217344 l 0.08274,0.3592986 0.01213,9.059406 c 0.01234,9.214807 0.01027,9.381144 -0.12468,10.034492 -0.242681,1.174895 -0.973992,2.417442 -1.89,3.211241 -1.025462,0.888651 -2.20804,1.376973 -3.572983,1.475393 -0.605732,0.04368 -17.2354142,0.04197 -17.8320938,-0.0018 z M 16.596535,20.628713 V 15.80198 h 1.579135 c 1.229758,0 1.582786,-0.01027 1.595634,-0.04641 0.02322,-0.06531 0.463845,-3.459726 0.463845,-3.573264 v -0.0932 h -1.822392 -1.822392 l 0.0154,-1.401609 c 0.01393,-1.2674952 0.0225,-1.4251377 0.08961,-1.6475064 0.14542,-0.4818643 0.421688,-0.8065838 0.823911,-0.9684063 0.20214,-0.081325 0.257337,-0.08478 1.537021,-0.096202 l 1.327351,-0.011848 V 6.2982204 4.6329037 L 20.058787,4.6033099 C 19.880105,4.5870334 18.9737,4.5730025 18.044554,4.5721303 l -1.689356,-0.00159 -0.355462,0.098306 c -0.487594,0.1348478 -0.860553,0.2959819 -1.198336,0.5177328 -1.09038,0.7158238 -1.748684,1.9457941 -1.955566,3.6537635 -0.02226,0.1837871 -0.05039,0.9899443 -0.0625,1.7914604 l -0.02202,1.457302 H 11.188825 9.6163366 v 1.856436 1.856435 h 1.5779704 1.57797 v 4.826733 4.826733 h 1.912129 1.912129 z"
   id="path3731"
   inkscape:connector-curvature="0" /></svg>