<?xml version="1.0" encoding="utf-8"?>
<!-- Generator: Adobe Illustrator 16.0.4, SVG Export Plug-In . SVG Version: 6.00 Build 0)  -->
<!DOCTYPE svg PUBLIC "-//W3C//DTD SVG 1.1//EN" "http://www.w3.org/Graphics/SVG/1.1/DTD/svg11.dtd">
<svg version="1.1" id="Calque_1" xmlns="http://www.w3.org/2000/svg" xmlns:xlink="http://www.w3.org/1999/xlink" x="0px" y="0px"
	 width="30px" height="30px" viewBox="0 0 30 30" enable-background="new 0 0 30 30" xml:space="preserve">
<path fill="#B5B5B5" d="M23.5,0.5h-17c-3.313,0-6,2.687-6,6v17c0,3.313,2.687,6,6,6h17c3.313,0,6-2.687,6-6v-17
	C29.5,3.187,26.813,0.5,23.5,0.5z M20.369,7.941c0,0-1.311,0-2.043,0c-0.73,0-1.74,0.151-1.74,1.941v2.234h3.656l-0.479,3.659
	h-3.178v9.675h-3.782v-9.675H9.632v-3.659h3.172V9.882c0-3.488,1.719-5.333,4.375-5.333c1.815,0,3.19,0.088,3.19,0.088V7.941z"/>
</svg>
