<?xml version="1.0" encoding="utf-8"?>
<!-- Generator: Adobe Illustrator 16.0.4, SVG Export Plug-In . SVG Version: 6.00 Build 0)  -->
<!DOCTYPE svg PUBLIC "-//W3C//DTD SVG 1.1//EN" "http://www.w3.org/Graphics/SVG/1.1/DTD/svg11.dtd">
<svg version="1.1" id="Calque_1" xmlns="http://www.w3.org/2000/svg" xmlns:xlink="http://www.w3.org/1999/xlink" x="0px" y="0px"
	 width="30px" height="30px" viewBox="0 0 30 30" enable-background="new 0 0 30 30" xml:space="preserve">
<path fill="#B5B5B5" d="M15.099,0.449c-6.082,0-7.86,0.006-8.206,0.035c-1.248,0.104-2.024,0.299-2.87,0.721
	C3.371,1.529,2.856,1.904,2.349,2.43C1.425,3.389,0.865,4.57,0.662,5.972c-0.099,0.682-0.127,0.82-0.133,4.299
	c-0.002,1.16,0,2.687,0,4.734c0,6.075,0.007,7.852,0.036,8.198c0.101,1.213,0.291,1.977,0.694,2.814
	c0.771,1.6,2.243,2.801,3.977,3.248c0.6,0.154,1.264,0.238,2.115,0.279c0.36,0.018,4.037,0.027,7.716,0.027s7.357-0.004,7.709-0.023
	c0.985-0.047,1.559-0.121,2.191-0.287c1.745-0.449,3.19-1.633,3.977-3.254c0.396-0.814,0.596-1.607,0.688-2.76
	c0.02-0.25,0.027-4.252,0.027-8.248c0-3.995-0.009-7.989-0.029-8.24c-0.092-1.169-0.292-1.956-0.7-2.788
	c-0.336-0.68-0.707-1.188-1.247-1.707c-0.964-0.921-2.142-1.48-3.546-1.684c-0.68-0.098-0.816-0.127-4.298-0.133H15.099z"/>
<path fill="#FFFFFF" d="M15.092,4.257c-2.921,0-3.288,0.013-4.435,0.064c-1.145,0.053-1.926,0.234-2.61,0.5
	C7.34,5.097,6.74,5.463,6.142,6.062C5.544,6.66,5.177,7.259,4.901,7.966c-0.266,0.685-0.448,1.467-0.5,2.611
	c-0.051,1.146-0.064,1.513-0.064,4.434c0,2.922,0.013,3.288,0.064,4.434c0.053,1.145,0.234,1.926,0.5,2.609
	c0.275,0.707,0.642,1.309,1.24,1.906c0.597,0.598,1.198,0.965,1.904,1.242c0.685,0.264,1.466,0.445,2.611,0.496
	c1.146,0.055,1.513,0.066,4.433,0.066c2.921,0,3.286-0.012,4.433-0.066c1.146-0.051,1.928-0.232,2.611-0.496
	c0.707-0.277,1.308-0.645,1.905-1.242c0.599-0.598,0.965-1.199,1.24-1.906c0.265-0.684,0.446-1.465,0.5-2.609
	c0.052-1.146,0.065-1.512,0.065-4.434c0-2.921-0.014-3.287-0.065-4.434c-0.054-1.145-0.235-1.927-0.5-2.611
	c-0.275-0.707-0.642-1.307-1.24-1.904c-0.599-0.599-1.198-0.966-1.905-1.24c-0.686-0.266-1.468-0.447-2.612-0.5
	c-1.147-0.052-1.512-0.064-4.434-0.064H15.092z M14.127,6.195c0.287,0,0.606,0,0.965,0c2.872,0,3.21,0.01,4.345,0.062
	c1.049,0.047,1.617,0.223,1.997,0.37c0.501,0.195,0.859,0.428,1.235,0.805c0.377,0.376,0.609,0.734,0.805,1.236
	c0.147,0.378,0.323,0.948,0.371,1.997c0.052,1.133,0.062,1.473,0.062,4.344c0,2.872-0.011,3.209-0.062,4.344
	c-0.048,1.049-0.224,1.617-0.371,1.996c-0.195,0.502-0.428,0.859-0.805,1.236c-0.376,0.375-0.734,0.609-1.235,0.805
	c-0.38,0.148-0.948,0.322-1.997,0.369c-1.135,0.053-1.474,0.062-4.345,0.062c-2.872,0-3.212-0.01-4.346-0.062
	c-1.049-0.047-1.618-0.223-1.997-0.369c-0.502-0.195-0.86-0.43-1.237-0.805c-0.377-0.377-0.609-0.734-0.805-1.236
	c-0.147-0.379-0.323-0.947-0.371-1.998c-0.052-1.133-0.062-1.473-0.062-4.345c0-2.872,0.01-3.21,0.062-4.344
	c0.048-1.049,0.224-1.618,0.371-1.997c0.195-0.502,0.428-0.861,0.805-1.236C7.889,7.052,8.248,6.82,8.75,6.624
	c0.379-0.147,0.948-0.322,1.997-0.37c0.992-0.045,1.376-0.059,3.38-0.061V6.195z M20.833,7.98c-0.713,0-1.291,0.578-1.291,1.291
	s0.578,1.291,1.291,1.291c0.712,0,1.29-0.578,1.29-1.291S21.545,7.98,20.833,7.98L20.833,7.98z M15.092,9.489
	c-3.05,0-5.523,2.473-5.523,5.522c0,3.049,2.473,5.524,5.523,5.524s5.522-2.475,5.522-5.524
	C20.614,11.961,18.143,9.489,15.092,9.489L15.092,9.489z M15.092,11.427c1.98,0,3.584,1.604,3.584,3.584
	c0,1.981-1.604,3.584-3.584,3.584c-1.98,0-3.585-1.604-3.585-3.584C11.507,13.031,13.112,11.427,15.092,11.427z"/>
</svg>
