<?xml version="1.0" encoding="UTF-8" standalone="no"?>
<!-- Generator: Adobe Illustrator 16.0.4, SVG Export Plug-In . SVG Version: 6.00 Build 0)  -->

<svg
   xmlns:dc="http://purl.org/dc/elements/1.1/"
   xmlns:cc="http://creativecommons.org/ns#"
   xmlns:rdf="http://www.w3.org/1999/02/22-rdf-syntax-ns#"
   xmlns:svg="http://www.w3.org/2000/svg"
   xmlns="http://www.w3.org/2000/svg"
   xmlns:sodipodi="http://sodipodi.sourceforge.net/DTD/sodipodi-0.dtd"
   xmlns:inkscape="http://www.inkscape.org/namespaces/inkscape"
   version="1.1"
   id="Calque_1"
   x="0px"
   y="0px"
   width="30px"
   height="30px"
   viewBox="0 0 30 30"
   enable-background="new 0 0 30 30"
   xml:space="preserve"
   sodipodi:docname="instagram_blanc.svg"
   inkscape:version="0.92.4 (5da689c313, 2019-01-14)"><metadata
   id="metadata107"><rdf:RDF><cc:Work
       rdf:about=""><dc:format>image/svg+xml</dc:format><dc:type
         rdf:resource="http://purl.org/dc/dcmitype/StillImage" /><dc:title></dc:title></cc:Work></rdf:RDF></metadata><defs
   id="defs105" /><sodipodi:namedview
   pagecolor="#ffffff"
   bordercolor="#666666"
   borderopacity="1"
   objecttolerance="10"
   gridtolerance="10"
   guidetolerance="10"
   inkscape:pageopacity="0"
   inkscape:pageshadow="2"
   inkscape:window-width="1920"
   inkscape:window-height="1001"
   id="namedview103"
   showgrid="false"
   inkscape:zoom="7.8666667"
   inkscape:cx="-6.4830508"
   inkscape:cy="15"
   inkscape:window-x="-9"
   inkscape:window-y="-9"
   inkscape:window-maximized="1"
   inkscape:current-layer="Calque_1" />
<path
   fill="#B5B5B5"
   d="M15.099,0.449c-6.082,0-7.86,0.006-8.206,0.035c-1.248,0.104-2.024,0.299-2.87,0.721  C3.371,1.529,2.856,1.904,2.349,2.43C1.425,3.389,0.865,4.57,0.662,5.972c-0.099,0.682-0.127,0.82-0.133,4.299  c-0.002,1.16,0,2.687,0,4.734c0,6.075,0.007,7.852,0.036,8.198c0.101,1.213,0.291,1.977,0.694,2.814  c0.771,1.6,2.243,2.801,3.977,3.248c0.6,0.154,1.264,0.238,2.115,0.279c0.36,0.018,4.037,0.027,7.716,0.027s7.357-0.004,7.709-0.023  c0.985-0.047,1.559-0.121,2.191-0.287c1.745-0.449,3.19-1.633,3.977-3.254c0.396-0.814,0.596-1.607,0.688-2.76  c0.02-0.25,0.027-4.252,0.027-8.248c0-3.995-0.009-7.989-0.029-8.24c-0.092-1.169-0.292-1.956-0.7-2.788  c-0.336-0.68-0.707-1.188-1.247-1.707c-0.964-0.921-2.142-1.48-3.546-1.684c-0.68-0.098-0.816-0.127-4.298-0.133H15.099z"
   id="path98"
   style="fill:#ffffff;fill-opacity:1" />
<path
   fill="#FFFFFF"
   d="M15.092,4.257c-2.921,0-3.288,0.013-4.435,0.064c-1.145,0.053-1.926,0.234-2.61,0.5  C7.34,5.097,6.74,5.463,6.142,6.062C5.544,6.66,5.177,7.259,4.901,7.966c-0.266,0.685-0.448,1.467-0.5,2.611  c-0.051,1.146-0.064,1.513-0.064,4.434c0,2.922,0.013,3.288,0.064,4.434c0.053,1.145,0.234,1.926,0.5,2.609  c0.275,0.707,0.642,1.309,1.24,1.906c0.597,0.598,1.198,0.965,1.904,1.242c0.685,0.264,1.466,0.445,2.611,0.496  c1.146,0.055,1.513,0.066,4.433,0.066c2.921,0,3.286-0.012,4.433-0.066c1.146-0.051,1.928-0.232,2.611-0.496  c0.707-0.277,1.308-0.645,1.905-1.242c0.599-0.598,0.965-1.199,1.24-1.906c0.265-0.684,0.446-1.465,0.5-2.609  c0.052-1.146,0.065-1.512,0.065-4.434c0-2.921-0.014-3.287-0.065-4.434c-0.054-1.145-0.235-1.927-0.5-2.611  c-0.275-0.707-0.642-1.307-1.24-1.904c-0.599-0.599-1.198-0.966-1.905-1.24c-0.686-0.266-1.468-0.447-2.612-0.5  c-1.147-0.052-1.512-0.064-4.434-0.064H15.092z M14.127,6.195c0.287,0,0.606,0,0.965,0c2.872,0,3.21,0.01,4.345,0.062  c1.049,0.047,1.617,0.223,1.997,0.37c0.501,0.195,0.859,0.428,1.235,0.805c0.377,0.376,0.609,0.734,0.805,1.236  c0.147,0.378,0.323,0.948,0.371,1.997c0.052,1.133,0.062,1.473,0.062,4.344c0,2.872-0.011,3.209-0.062,4.344  c-0.048,1.049-0.224,1.617-0.371,1.996c-0.195,0.502-0.428,0.859-0.805,1.236c-0.376,0.375-0.734,0.609-1.235,0.805  c-0.38,0.148-0.948,0.322-1.997,0.369c-1.135,0.053-1.474,0.062-4.345,0.062c-2.872,0-3.212-0.01-4.346-0.062  c-1.049-0.047-1.618-0.223-1.997-0.369c-0.502-0.195-0.86-0.43-1.237-0.805c-0.377-0.377-0.609-0.734-0.805-1.236  c-0.147-0.379-0.323-0.947-0.371-1.998c-0.052-1.133-0.062-1.473-0.062-4.345c0-2.872,0.01-3.21,0.062-4.344  c0.048-1.049,0.224-1.618,0.371-1.997c0.195-0.502,0.428-0.861,0.805-1.236C7.889,7.052,8.248,6.82,8.75,6.624  c0.379-0.147,0.948-0.322,1.997-0.37c0.992-0.045,1.376-0.059,3.38-0.061V6.195z M20.833,7.98c-0.713,0-1.291,0.578-1.291,1.291  s0.578,1.291,1.291,1.291c0.712,0,1.29-0.578,1.29-1.291S21.545,7.98,20.833,7.98L20.833,7.98z M15.092,9.489  c-3.05,0-5.523,2.473-5.523,5.522c0,3.049,2.473,5.524,5.523,5.524s5.522-2.475,5.522-5.524  C20.614,11.961,18.143,9.489,15.092,9.489L15.092,9.489z M15.092,11.427c1.98,0,3.584,1.604,3.584,3.584  c0,1.981-1.604,3.584-3.584,3.584c-1.98,0-3.585-1.604-3.585-3.584C11.507,13.031,13.112,11.427,15.092,11.427z"
   id="path100"
   style="opacity:1;fill:#b5b5b5;fill-opacity:1" />
<path
   style="fill:none;fill-opacity:1;stroke-width:0.12711865"
   d="M 10.550847,25.632974 C 9.1370189,25.525908 7.9373441,25.192396 7.1404185,24.684867 5.8996241,23.894657 4.9648154,22.50007 4.6296755,20.939237 4.3692972,19.726588 4.3692972,10.298836 4.6296755,9.0861866 5.1358036,6.729017 6.6792856,5.1717369 9.1126581,4.563128 10.367705,4.2492291 19.679357,4.2420515 21.054164,4.5539232 c 2.351664,0.533469 3.860239,2.0114705 4.460589,4.3701904 0.194903,0.7657548 0.22315,1.5364644 0.22315,6.0885984 0,4.51597 -0.02925,5.326584 -0.219081,6.07105 -0.611483,2.398113 -2.233867,3.951005 -4.610883,4.413389 -0.925806,0.180091 -8.466648,0.278981 -10.357092,0.135823 z m 9.697246,-1.915266 c 1.106361,-0.159975 1.959248,-0.596563 2.610303,-1.336202 0.966396,-1.097883 0.97635,-1.173656 0.97635,-7.432353 0,-5.4770924 -0.0028,-5.5365466 -0.292644,-6.253895 C 23.150448,7.7259957 22.169306,6.8208638 21.146886,6.4856026 20.460154,6.2604168 19.984391,6.2415254 15,6.2415254 c -5.3141615,0 -5.4141449,0.0047 -6.1117814,0.2870339 -1.4908969,0.603376 -2.3007971,1.712968 -2.5279002,3.4633128 -0.1588967,1.2246609 -0.1611431,8.7999439 -0.00297,10.0180209 0.2769738,2.132962 1.4207154,3.364241 3.4307878,3.693366 0.9586568,0.156968 9.3937338,0.168621 10.4599578,0.01445 z"
   id="path109"
   inkscape:connector-curvature="0" /><path
   style="fill:none;fill-opacity:1;stroke-width:0.12711865"
   d="M 14.300847,20.410783 C 12.465386,20.142795 10.949933,18.997208 10.123501,17.252972 9.7511991,16.467206 9.7245763,16.317259 9.7245763,15.006119 c 0,-1.36783 0.012608,-1.430409 0.4778617,-2.371786 0.814977,-1.648994 2.327265,-2.7698514 4.060826,-3.0097507 4.152592,-0.5746573 7.390052,3.4131057 5.932849,7.3078277 -0.887524,2.372122 -3.383891,3.845049 -5.895266,3.478373 z m 2.432778,-2.196221 c 1.619897,-0.822243 2.347684,-2.696837 1.739728,-4.481092 -0.316699,-0.92946 -1.319985,-1.883496 -2.271673,-2.160159 -1.813411,-0.527173 -3.66045,0.293682 -4.424165,1.966173 -0.367644,0.805117 -0.365937,2.144978 0.0038,2.954965 0.847877,1.857637 3.123947,2.648191 4.952346,1.720113 z"
   id="path111"
   inkscape:connector-curvature="0" /><path
   style="fill:#000000;fill-opacity:0;stroke-width:0.12711865;opacity:0.00000001"
   d="m 20.197634,10.309368 c -1.063797,-0.5781629 -0.591103,-2.2246222 0.638682,-2.2246222 0.593874,0 0.971225,0.2687918 1.153742,0.8218252 0.353223,1.0702769 -0.776888,1.95473 -1.792424,1.402797 z"
   id="path113"
   inkscape:connector-curvature="0" /><path
   style="opacity:0;fill:none;fill-opacity:0;stroke-width:0.12711865"
   d="M 10.639831,25.633827 C 9.0493201,25.513813 8.4088675,25.353844 7.4197274,24.829527 5.8666843,24.006299 4.8304786,22.395726 4.5482174,20.366343 4.369526,19.081599 4.369526,10.943824 4.5482174,9.6590807 4.922299,6.969533 6.4802105,5.2121319 9.0639441,4.5651179 9.822988,4.3750394 10.63177,4.3457584 15.088983,4.3469882 c 4.398019,0.00121 5.273518,0.032616 6.007491,0.2154806 2.285475,0.5694097 3.780533,1.9924388 4.382372,4.1712401 0.198562,0.7188393 0.224544,1.4453921 0.224544,6.2790031 0,4.909624 -0.02364,5.549444 -0.232198,6.284748 -0.317426,1.119139 -0.600459,1.634695 -1.344113,2.448373 -0.757741,0.829088 -1.848413,1.441704 -3.029222,1.701473 -1.010387,0.222277 -8.268576,0.351728 -10.458026,0.186521 z m 10.499707,-2.080585 c 1.003828,-0.329351 1.750954,-0.974258 2.21079,-1.908318 0.340368,-0.691385 0.412893,-1.019019 0.513635,-2.320331 0.151204,-1.953165 0.150794,-6.675822 -7.63e-4,-8.633704 C 23.758986,9.3443081 23.696063,9.0695391 23.325969,8.3448311 22.828726,7.3711449 22.136207,6.7897599 21.086893,6.4650789 20.446578,6.2669508 19.764418,6.2415254 15.088983,6.2415254 c -4.675436,0 -5.3575941,0.025425 -5.9979106,0.2235535 -1.0493135,0.324681 -1.7418328,0.906066 -2.2390755,1.8797522 -0.3700942,0.724708 -0.4330159,0.999477 -0.5372438,2.3460579 -0.1498622,1.936157 -0.1508602,6.515503 -0.00187,8.566082 0.1003056,1.380493 0.1640063,1.675488 0.5163517,2.391203 0.5840821,1.186439 1.5389626,1.838888 3.0258839,2.067518 0.3966313,0.06099 2.9520813,0.09722 5.6787763,0.08052 4.234582,-0.02593 5.052136,-0.06137 5.60564,-0.242972 z"
   id="path4623"
   inkscape:connector-curvature="0" /><path
   style="opacity:0;fill:none;fill-opacity:0;stroke-width:0.12711865"
   d="m 14.27289,20.391916 c -1.523025,-0.202455 -3.059325,-1.214608 -3.850135,-2.536566 -2.0171711,-3.372009 0.03027,-7.686732 3.903516,-8.2261682 3.884966,-0.5410684 7.017194,2.9827182 6.032753,6.7869072 -0.696845,2.692831 -3.239986,4.354162 -6.086134,3.975827 z m 2.000338,-1.958699 c 0.823976,-0.280757 1.766314,-1.162697 2.119466,-1.983622 1.229665,-2.858434 -1.544055,-5.860476 -4.487956,-4.857388 -0.823976,0.280756 -1.766314,1.162696 -2.119466,1.983622 -1.227891,2.854308 1.548303,5.859028 4.487956,4.857388 z"
   id="path4625"
   inkscape:connector-curvature="0" /><path
   style="opacity:0;fill:none;fill-opacity:0;stroke-width:0.12711865"
   d="M 20.071449,10.183597 C 19.620324,9.804 19.501247,9.3089335 19.729611,8.762383 c 0.326999,-0.7826202 1.345301,-0.9400788 1.97932,-0.3060597 0.417833,0.4178332 0.472188,0.8447929 0.179584,1.4106279 -0.364831,0.7055038 -1.185065,0.8484398 -1.817066,0.3166458 z"
   id="path4627"
   inkscape:connector-curvature="0" /><path
   style="opacity:1;fill:#b5b5b5;fill-opacity:0;stroke-width:0.12711865"
   d="M 7.2711864,29.448561 C 6.4322034,29.398609 5.4883475,29.285354 5.1737288,29.196882 4.2552853,28.938613 3.2245466,28.329261 2.5191417,27.627544 1.7500163,26.86244 1.3646765,26.242181 0.95745608,25.113792 L 0.66101695,24.292373 0.62362987,15.444608 C 0.59164981,7.8764267 0.61449414,6.4608437 0.78158847,5.656472 1.3061933,3.1310883 2.9100313,1.4467716 5.4629652,0.74018901 6.1767882,0.54262223 7.118975,0.52118644 15.088983,0.52118644 c 9.689457,0 9.535004,-0.0108088 11.167293,0.78149666 1.554455,0.7545252 2.880093,2.610217 3.192255,4.4686709 0.09925,0.5909041 0.131063,3.5749921 0.103934,9.749832 -0.03781,8.60421 -0.04771,8.921819 -0.299812,9.60973 -0.79943,2.181441 -2.31999,3.568219 -4.533127,4.134298 -0.677415,0.17327 -1.920937,0.208802 -8.359357,0.238857 -4.159957,0.01942 -8.2499995,-0.0056 -9.0889826,-0.05551 z M 21.662822,25.414372 c 2.06443,-0.695779 3.311997,-2.041746 3.935108,-4.245482 0.206636,-0.730807 0.231143,-1.381599 0.231821,-6.156178 6.35e-4,-4.711386 -0.02561,-5.4344242 -0.223534,-6.1509026 C 24.942744,6.4600931 23.378442,4.971275 20.978999,4.4578735 19.720778,4.1886559 10.454997,4.1884337 9.1989671,4.4575909 6.8104469,4.969432 5.2319806,6.4718275 4.5717498,8.8618094 4.3738232,9.5782878 4.3475467,10.301326 4.3482153,15.012712 c 8.262e-4,5.797255 0.034154,6.127314 0.7642761,7.568142 0.8146556,1.607645 2.3641267,2.702472 4.300223,3.038456 0.3602952,0.06252 3.0862266,0.101894 6.0576246,0.08749 5.109037,-0.02477 5.445458,-0.04065 6.192483,-0.292426 z"
   id="path4631"
   inkscape:connector-curvature="0" /><path
   style="opacity:1;fill:#b5b5b5;fill-opacity:0;stroke-width:0.12711865"
   d="M 10.639831,25.633827 C 9.0493201,25.513813 8.4088675,25.353844 7.4197274,24.829527 5.8666843,24.006299 4.8304786,22.395726 4.5482174,20.366343 4.369526,19.081599 4.369526,10.943824 4.5482174,9.6590807 4.922299,6.969533 6.4802105,5.2121319 9.0639441,4.5651179 9.822988,4.3750394 10.63177,4.3457584 15.088983,4.3469882 c 4.398019,0.00121 5.273518,0.032616 6.007491,0.2154806 2.285475,0.5694097 3.780533,1.9924388 4.382372,4.1712401 0.198562,0.7188393 0.224544,1.4453921 0.224544,6.2790031 0,4.909624 -0.02364,5.549444 -0.232198,6.284748 -0.317426,1.119139 -0.600459,1.634695 -1.344113,2.448373 -0.757741,0.829088 -1.848413,1.441704 -3.029222,1.701473 -1.010387,0.222277 -8.268576,0.351728 -10.458026,0.186521 z m 10.499707,-2.080585 c 1.003828,-0.329351 1.750954,-0.974258 2.21079,-1.908318 0.340368,-0.691385 0.412893,-1.019019 0.513635,-2.320331 0.151204,-1.953165 0.150794,-6.675822 -7.63e-4,-8.633704 C 23.758986,9.3443081 23.696063,9.0695391 23.325969,8.3448311 22.828726,7.3711449 22.136207,6.7897599 21.086893,6.4650789 20.446578,6.2669508 19.764418,6.2415254 15.088983,6.2415254 c -4.675436,0 -5.3575941,0.025425 -5.9979106,0.2235535 -1.0493135,0.324681 -1.7418328,0.906066 -2.2390755,1.8797522 -0.3700942,0.724708 -0.4330159,0.999477 -0.5372438,2.3460579 -0.1498622,1.936157 -0.1508602,6.515503 -0.00187,8.566082 0.1003056,1.380493 0.1640063,1.675488 0.5163517,2.391203 0.5840821,1.186439 1.5389626,1.838888 3.0258839,2.067518 0.3966313,0.06099 2.9520813,0.09722 5.6787763,0.08052 4.234582,-0.02593 5.052136,-0.06137 5.60564,-0.242972 z"
   id="path4633"
   inkscape:connector-curvature="0" /><path
   style="opacity:1;fill:#b5b5b5;fill-opacity:0;stroke-width:0.12711865"
   d="M 10.639831,25.633827 C 9.0493201,25.513813 8.4088675,25.353844 7.4197274,24.829527 5.8666843,24.006299 4.8304786,22.395726 4.5482174,20.366343 4.369526,19.081599 4.369526,10.943824 4.5482174,9.6590807 4.922299,6.969533 6.4802105,5.2121319 9.0639441,4.5651179 9.822988,4.3750394 10.63177,4.3457584 15.088983,4.3469882 c 4.398019,0.00121 5.273518,0.032616 6.007491,0.2154806 2.285475,0.5694097 3.780533,1.9924388 4.382372,4.1712401 0.198562,0.7188393 0.224544,1.4453921 0.224544,6.2790031 0,4.909624 -0.02364,5.549444 -0.232198,6.284748 -0.317426,1.119139 -0.600459,1.634695 -1.344113,2.448373 -0.757741,0.829088 -1.848413,1.441704 -3.029222,1.701473 -1.010387,0.222277 -8.268576,0.351728 -10.458026,0.186521 z m 10.499707,-2.080585 c 1.003828,-0.329351 1.750954,-0.974258 2.21079,-1.908318 0.340368,-0.691385 0.412893,-1.019019 0.513635,-2.320331 0.151204,-1.953165 0.150794,-6.675822 -7.63e-4,-8.633704 C 23.758986,9.3443081 23.696063,9.0695391 23.325969,8.3448311 22.828726,7.3711449 22.136207,6.7897599 21.086893,6.4650789 20.446578,6.2669508 19.764418,6.2415254 15.088983,6.2415254 c -4.675436,0 -5.3575941,0.025425 -5.9979106,0.2235535 -1.0493135,0.324681 -1.7418328,0.906066 -2.2390755,1.8797522 -0.3700942,0.724708 -0.4330159,0.999477 -0.5372438,2.3460579 -0.1498622,1.936157 -0.1508602,6.515503 -0.00187,8.566082 0.1003056,1.380493 0.1640063,1.675488 0.5163517,2.391203 0.5840821,1.186439 1.5389626,1.838888 3.0258839,2.067518 0.3966313,0.06099 2.9520813,0.09722 5.6787763,0.08052 4.234582,-0.02593 5.052136,-0.06137 5.60564,-0.242972 z"
   id="path4635"
   inkscape:connector-curvature="0" /></svg>