<?xml version="1.0" encoding="utf-8"?>
<!-- Generator: Adobe Illustrator 16.0.4, SVG Export Plug-In . SVG Version: 6.00 Build 0)  -->
<!DOCTYPE svg PUBLIC "-//W3C//DTD SVG 1.1//EN" "http://www.w3.org/Graphics/SVG/1.1/DTD/svg11.dtd">
<svg version="1.1" id="Calque_1" xmlns="http://www.w3.org/2000/svg" xmlns:xlink="http://www.w3.org/1999/xlink" x="0px" y="0px"
	 width="30px" height="30px" viewBox="0 0 30 30" enable-background="new 0 0 30 30" xml:space="preserve">
<path fill="#B5B5B5" d="M23.5,0.5h-17c-3.313,0-6,2.687-6,6v17c0,3.313,2.687,6,6,6h17c3.313,0,6-2.687,6-6v-17
	C29.5,3.187,26.813,0.5,23.5,0.5z M24.193,10.553c0,0.026,0.001,0.051,0.001,0.077c0,4.397-1.977,9.448-6.869,11.862
	c-4.998,2.467-10.188,1.209-12.73-0.662c2.099,0.336,4.948-0.307,6.613-1.855c-1.33,0.176-3.696-0.979-4.164-3.082
	c0.497,0.072,1.374,0.189,1.943-0.117c-1.943-0.205-3.754-2.44-3.488-4.448c0.417,0.362,1.22,0.645,2.006,0.61
	C5.845,11.774,4.757,9.37,6.106,6.915c1.502,2.167,5.393,4.618,9.209,4.694c-0.07-0.315-0.109-0.643-0.109-0.979
	c0-2.481,2.013-4.494,4.493-4.494c1.309,0,2.484,0.559,3.306,1.451c1.259-0.205,2.973-1.167,2.973-1.167
	c-0.379,1.091-1.246,2.155-1.974,2.436c1.062,0,1.888-0.341,2.399-0.705C26.075,8.896,24.989,10.001,24.193,10.553z"/>
</svg>
