<?xml version="1.0" encoding="utf-8"?>
<!-- Generator: Adobe Illustrator 16.0.4, SVG Export Plug-In . SVG Version: 6.00 Build 0)  -->
<!DOCTYPE svg PUBLIC "-//W3C//DTD SVG 1.1//EN" "http://www.w3.org/Graphics/SVG/1.1/DTD/svg11.dtd">
<svg version="1.1" id="Calque_1" xmlns="http://www.w3.org/2000/svg" xmlns:xlink="http://www.w3.org/1999/xlink" x="0px" y="0px"
	 width="30px" height="30px" viewBox="0 0 30 30" enable-background="new 0 0 30 30" xml:space="preserve">
<path fill="#00B8F1" d="M23.5,0.5h-17c-3.312,0-6,2.687-6,6v17c0,3.312,2.688,6,6,6h17c3.312,0,6-2.688,6-6v-17
	C29.5,3.187,26.812,0.5,23.5,0.5z M24.193,10.553c0,0.026,0,0.051,0,0.077c0,4.397-1.977,9.448-6.868,11.862
	c-4.997,2.467-10.188,1.209-12.729-0.662c2.098,0.336,4.947-0.307,6.613-1.855c-1.33,0.176-3.697-0.979-4.164-3.082
	c0.496,0.072,1.373,0.189,1.941-0.117C7.045,16.57,5.232,14.336,5.5,12.328c0.416,0.361,1.219,0.645,2.006,0.609
	c-1.66-1.164-2.748-3.567-1.4-6.022c1.502,2.167,5.395,4.618,9.209,4.694c-0.068-0.315-0.107-0.644-0.107-0.979
	c0-2.481,2.012-4.494,4.492-4.494c1.309,0,2.484,0.559,3.306,1.451c1.259-0.205,2.974-1.167,2.974-1.167
	c-0.379,1.091-1.246,2.155-1.975,2.436c1.062,0,1.889-0.34,2.398-0.705C26.075,8.896,24.988,10.001,24.193,10.553z"/>
<g>
	<path fill="#FFFFFF" d="M17.327,22.492c4.892-2.414,6.868-7.465,6.868-11.862c0-0.026,0-0.051,0-0.077
		c0.795-0.552,1.882-1.656,2.209-2.402c-0.51,0.365-1.336,0.705-2.398,0.705c0.729-0.28,1.596-1.345,1.975-2.436
		c0,0-1.715,0.962-2.974,1.167c-0.821-0.892-1.997-1.451-3.306-1.451c-2.48,0-4.494,2.013-4.494,4.494
		c0,0.336,0.039,0.664,0.109,0.979C11.5,11.533,7.609,9.082,6.107,6.915c-1.35,2.455-0.261,4.858,1.398,6.022
		c-0.785,0.035-1.588-0.248-2.006-0.609c-0.266,2.008,1.545,4.242,3.488,4.447c-0.568,0.307-1.445,0.189-1.943,0.117
		c0.469,2.104,2.834,3.258,4.164,3.082c-1.664,1.549-4.514,2.191-6.612,1.855C7.139,23.701,12.328,24.959,17.327,22.492z"/>
</g>
</svg>
