<?xml version="1.0" encoding="UTF-8" standalone="no"?>
<!-- Generator: Adobe Illustrator 16.0.4, SVG Export Plug-In . SVG Version: 6.00 Build 0)  -->

<svg
   xmlns:dc="http://purl.org/dc/elements/1.1/"
   xmlns:cc="http://creativecommons.org/ns#"
   xmlns:rdf="http://www.w3.org/1999/02/22-rdf-syntax-ns#"
   xmlns:svg="http://www.w3.org/2000/svg"
   xmlns="http://www.w3.org/2000/svg"
   xmlns:sodipodi="http://sodipodi.sourceforge.net/DTD/sodipodi-0.dtd"
   xmlns:inkscape="http://www.inkscape.org/namespaces/inkscape"
   version="1.1"
   id="Calque_1"
   x="0px"
   y="0px"
   width="30px"
   height="30px"
   viewBox="0 0 30 30"
   enable-background="new 0 0 30 30"
   xml:space="preserve"
   sodipodi:docname="twitter_blanc.svg"
   inkscape:version="0.92.4 (5da689c313, 2019-01-14)"><metadata
   id="metadata3749"><rdf:RDF><cc:Work
       rdf:about=""><dc:format>image/svg+xml</dc:format><dc:type
         rdf:resource="http://purl.org/dc/dcmitype/StillImage" /><dc:title></dc:title></cc:Work></rdf:RDF></metadata><defs
   id="defs3747" /><sodipodi:namedview
   pagecolor="#ffffff"
   bordercolor="#666666"
   borderopacity="1"
   objecttolerance="10"
   gridtolerance="10"
   guidetolerance="10"
   inkscape:pageopacity="0"
   inkscape:pageshadow="2"
   inkscape:window-width="1920"
   inkscape:window-height="1001"
   id="namedview3745"
   showgrid="false"
   inkscape:zoom="7.8666667"
   inkscape:cx="15"
   inkscape:cy="15"
   inkscape:window-x="-9"
   inkscape:window-y="-9"
   inkscape:window-maximized="1"
   inkscape:current-layer="Calque_1" />
<path
   fill="#B5B5B5"
   d="M23.5,0.5h-17c-3.313,0-6,2.687-6,6v17c0,3.313,2.687,6,6,6h17c3.313,0,6-2.687,6-6v-17  C29.5,3.187,26.813,0.5,23.5,0.5z M24.193,10.553c0,0.026,0.001,0.051,0.001,0.077c0,4.397-1.977,9.448-6.869,11.862  c-4.998,2.467-10.188,1.209-12.73-0.662c2.099,0.336,4.948-0.307,6.613-1.855c-1.33,0.176-3.696-0.979-4.164-3.082  c0.497,0.072,1.374,0.189,1.943-0.117c-1.943-0.205-3.754-2.44-3.488-4.448c0.417,0.362,1.22,0.645,2.006,0.61  C5.845,11.774,4.757,9.37,6.106,6.915c1.502,2.167,5.393,4.618,9.209,4.694c-0.07-0.315-0.109-0.643-0.109-0.979  c0-2.481,2.013-4.494,4.493-4.494c1.309,0,2.484,0.559,3.306,1.451c1.259-0.205,2.973-1.167,2.973-1.167  c-0.379,1.091-1.246,2.155-1.974,2.436c1.062,0,1.888-0.341,2.399-0.705C26.075,8.896,24.989,10.001,24.193,10.553z"
   id="path3742" />
<path
   style="fill:#ffffff;fill-opacity:1;stroke-width:0.12711865"
   d="M 4.9894925,29.246213 C 3.0869667,28.728342 1.5627422,27.330358 0.87410315,25.471673 L 0.57846685,24.673729 0.53788045,15.589454 C 0.51070332,9.5065178 0.54273727,6.2122909 0.6348389,5.6186816 0.94064786,3.6476954 2.1808426,2.0045447 4.0285827,1.1222648 L 5.0211864,0.64830508 h 9.9883966 9.988398 l 1.089676,0.53995602 c 1.814194,0.8989682 2.972521,2.4647564 3.277504,4.4304205 0.0921,0.5936093 0.124136,3.8878362 0.09696,9.9707724 l -0.04059,9.084275 -0.299431,0.809179 c -0.58889,1.591414 -1.924658,2.945181 -3.558072,3.606019 l -0.712335,0.288192 -9.597458,0.02537 c -7.9812597,0.02109 -9.7098276,-0.0052 -10.2647445,-0.156271 z m 9.8198295,-5.773567 c 5.374025,-1.475618 8.698356,-5.576245 9.354914,-11.539465 L 24.315032,10.563559 24.96472,9.97642 c 0.677694,-0.6124493 1.57628,-1.7645556 1.376268,-1.7645556 -0.06352,0 -0.299323,0.091709 -0.524011,0.2037985 -0.224688,0.1120893 -0.63196,0.2337678 -0.905049,0.2703968 l -0.496527,0.066598 0.472384,-0.497037 c 0.513696,-0.5405036 1.148243,-1.6348482 1.021465,-1.7616259 -0.04339,-0.043387 -0.384892,0.077465 -0.758899,0.2685586 -0.374006,0.1910939 -0.989702,0.4443831 -1.368212,0.5628651 l -0.6882,0.2154217 -0.646546,-0.4903758 C 21.307978,6.1862694 19.985602,5.8987154 18.684136,6.2321354 16.563425,6.7754366 15.20557,8.4981406 15.194911,10.658898 l -0.0042,0.858051 h -0.418495 c -0.696541,0 -2.296994,-0.377077 -3.319804,-0.782167 C 9.5973022,10.000066 7.8213404,8.8193268 6.7305714,7.5955115 6.0080197,6.7848266 5.9836279,6.7927135 5.640143,7.9480981 5.1995678,9.4300669 5.6468523,11.159354 6.7753834,12.337154 l 0.5774188,0.602628 -0.4666553,-0.08333 C 6.6294864,12.81062 6.2049788,12.669269 5.9427966,12.542339 L 5.4661017,12.311558 v 0.53344 c 0,1.533509 1.4577664,3.434188 2.9700902,3.872494 l 0.3985539,0.115511 -0.381356,0.02854 c -0.2097457,0.01569 -0.6301118,0.01522 -0.934147,-0.001 -0.5257474,-0.02813 -0.5484225,-0.01498 -0.4634949,0.268947 0.4018685,1.343491 1.9110401,2.610778 3.4041271,2.858525 0.449353,0.07456 0.467741,0.09454 0.278967,0.303137 -0.32372,0.357705 -1.7346987,0.997315 -2.802572,1.270431 -0.6441594,0.164748 -1.4075841,0.252316 -2.2044856,0.252864 l -1.2190725,8.9e-4 0.3813559,0.25988 c 0.9818588,0.669099 2.5095229,1.275446 4.0042373,1.589326 1.2937469,0.271677 4.6156489,0.163892 5.9110169,-0.191795 z"
   id="path3763"
   inkscape:connector-curvature="0" /></svg>