<?xml version="1.0" encoding="utf-8"?>
<!-- Generator: Adobe Illustrator 16.0.4, SVG Export Plug-In . SVG Version: 6.00 Build 0)  -->
<!DOCTYPE svg PUBLIC "-//W3C//DTD SVG 1.1//EN" "http://www.w3.org/Graphics/SVG/1.1/DTD/svg11.dtd">
<svg version="1.1" id="Calque_1" xmlns="http://www.w3.org/2000/svg" xmlns:xlink="http://www.w3.org/1999/xlink" x="0px" y="0px"
	 width="30px" height="30px" viewBox="0 0 30 30" enable-background="new 0 0 30 30" xml:space="preserve">
<g>
	<path fill="#B5B5B5" d="M23.5,0.5h-17c-3.313,0-6,2.687-6,6v17c0,3.313,2.687,6,6,6h17c3.313,0,6-2.687,6-6v-17
		C29.5,3.187,26.813,0.5,23.5,0.5z M24.115,21.574c-1.049,1.049-5.279,1.074-9.115,1.074c-3.836,0-8.067-0.025-9.116-1.074
		C4.835,20.523,4.544,19.27,4.544,15c0-4.27,0.291-5.525,1.34-6.574S11.165,7.351,15,7.351c3.835,0,8.066,0.026,9.115,1.075
		c1.049,1.05,1.34,2.305,1.34,6.574C25.455,19.27,25.164,20.523,24.115,21.574z"/>
	<path fill="#B5B5B5" d="M18.682,14.833l-6.104-3.524c-0.159-0.092-0.29-0.017-0.29,0.167v7.047c0,0.184,0.131,0.26,0.29,0.168
		l6.104-3.524C18.84,15.076,18.84,14.925,18.682,14.833z"/>
</g>
</svg>
