<?xml version="1.0" encoding="UTF-8" standalone="no"?>
<!-- Generator: Adobe Illustrator 16.0.4, SVG Export Plug-In . SVG Version: 6.00 Build 0)  -->

<svg
   xmlns:dc="http://purl.org/dc/elements/1.1/"
   xmlns:cc="http://creativecommons.org/ns#"
   xmlns:rdf="http://www.w3.org/1999/02/22-rdf-syntax-ns#"
   xmlns:svg="http://www.w3.org/2000/svg"
   xmlns="http://www.w3.org/2000/svg"
   xmlns:sodipodi="http://sodipodi.sourceforge.net/DTD/sodipodi-0.dtd"
   xmlns:inkscape="http://www.inkscape.org/namespaces/inkscape"
   version="1.1"
   id="Calque_1"
   x="0px"
   y="0px"
   width="30px"
   height="30px"
   viewBox="0 0 30 30"
   enable-background="new 0 0 30 30"
   xml:space="preserve"
   sodipodi:docname="youtube_blanc.svg"
   inkscape:version="0.92.4 (5da689c313, 2019-01-14)"><metadata
   id="metadata13"><rdf:RDF><cc:Work
       rdf:about=""><dc:format>image/svg+xml</dc:format><dc:type
         rdf:resource="http://purl.org/dc/dcmitype/StillImage" /><dc:title></dc:title></cc:Work></rdf:RDF></metadata><defs
   id="defs11" /><sodipodi:namedview
   pagecolor="#ffffff"
   bordercolor="#666666"
   borderopacity="1"
   objecttolerance="10"
   gridtolerance="10"
   guidetolerance="10"
   inkscape:pageopacity="0"
   inkscape:pageshadow="2"
   inkscape:window-width="1920"
   inkscape:window-height="1001"
   id="namedview9"
   showgrid="false"
   inkscape:zoom="5.5625733"
   inkscape:cx="15"
   inkscape:cy="15"
   inkscape:window-x="-9"
   inkscape:window-y="-9"
   inkscape:window-maximized="1"
   inkscape:current-layer="Calque_1" />
<g
   id="g6">
	<path
   fill="#B5B5B5"
   d="M23.5,0.5h-17c-3.313,0-6,2.687-6,6v17c0,3.313,2.687,6,6,6h17c3.313,0,6-2.687,6-6v-17   C29.5,3.187,26.813,0.5,23.5,0.5z M24.115,21.574c-1.049,1.049-5.279,1.074-9.115,1.074c-3.836,0-8.067-0.025-9.116-1.074   C4.835,20.523,4.544,19.27,4.544,15c0-4.27,0.291-5.525,1.34-6.574S11.165,7.351,15,7.351c3.835,0,8.066,0.026,9.115,1.075   c1.049,1.05,1.34,2.305,1.34,6.574C25.455,19.27,25.164,20.523,24.115,21.574z"
   id="path2" />
	<path
   fill="#B5B5B5"
   d="M18.682,14.833l-6.104-3.524c-0.159-0.092-0.29-0.017-0.29,0.167v7.047c0,0.184,0.131,0.26,0.29,0.168   l6.104-3.524C18.84,15.076,18.84,14.925,18.682,14.833z"
   id="path4" />
</g>
<path
   style="fill:#ffffff;fill-opacity:1;stroke-width:0.12711865"
   d="M 4.9894925,29.246213 C 3.0869667,28.728342 1.5627422,27.330358 0.87410315,25.471673 L 0.57846685,24.673729 0.53788045,15.589454 C 0.51070332,9.5065178 0.54273727,6.2122909 0.6348389,5.6186816 0.94064786,3.6476954 2.1808426,2.0045447 4.0285827,1.1222648 L 5.0211864,0.64830508 h 9.9883966 9.988398 l 1.089676,0.53995602 c 1.814194,0.8989682 2.972521,2.4647564 3.277504,4.4304205 0.0921,0.5936093 0.124136,3.8878362 0.09696,9.9707724 l -0.04059,9.084275 -0.299431,0.809179 c -0.58889,1.591414 -1.924658,2.945181 -3.558072,3.606019 l -0.712335,0.288192 -9.597458,0.02537 C 7.2729773,29.423578 5.5444094,29.397259 4.9894925,29.246213 Z M 21.54661,22.457533 c 2.294245,-0.360489 3.021483,-0.861477 3.506099,-2.415326 0.389769,-1.249737 0.563907,-4.445773 0.391079,-7.177644 C 25.292348,10.470775 25.108326,9.6606055 24.536855,8.8717129 24.042332,8.1890433 23.420853,7.8839521 21.96737,7.610323 20.949017,7.4186103 19.97693,7.3875256 15,7.3875256 c -7.4617316,0 -8.5887727,0.1753975 -9.5368552,1.4841873 -0.5714708,0.7888926 -0.755492,1.5990621 -0.9069323,3.9928501 -0.1701937,2.690218 0.00165,5.933853 0.3778469,7.132048 0.7577196,2.413352 2.0291812,2.72193 10.8922116,2.64349 2.65678,-0.02351 5.230932,-0.105668 5.720339,-0.182568 z"
   id="path83"
   inkscape:connector-curvature="0" /><path
   style="fill:#ffffff;fill-opacity:1;stroke-width:0.12711865"
   d="m 12.330508,15.022033 c 0,-2.649053 0.0395,-3.632202 0.145943,-3.632202 0.243031,0 6.210274,3.480979 6.206221,3.620386 -0.0038,0.12945 -5.815785,3.525106 -6.166771,3.602917 -0.159078,0.03527 -0.185393,-0.474459 -0.185393,-3.591101 z"
   id="path85"
   inkscape:connector-curvature="0" /></svg>